<?xml version="1.0"?><svg xmlns="http://www.w3.org/2000/svg" version="1.1" width="220.5" height="90" viewBox="0 0 147 66"><g><rect x="0" y="0" width="147" height="60" fill="white"/><g transform="translate(10 10)"><g><rect x="0" y="0" width="1" height="40" fill="url(#black)"/><rect x="4" y="0" width="1" height="40" fill="url(#black)"/><rect x="6" y="0" width="3" height="40" fill="url(#black)"/><rect x="10" y="0" width="3" height="40" fill="url(#black)"/><rect x="14" y="0" width="1" height="40" fill="url(#black)"/><text x="7.5" y="50" text-anchor="middle" font-family="monospace" font-size="10" fill="black">*</text></g><g></g><g><rect x="16" y="0" width="1" height="40" fill="url(#black)"/><rect x="18" y="0" width="3" height="40" fill="url(#black)"/><rect x="22" y="0" width="1" height="40" fill="url(#black)"/><rect x="24" y="0" width="1" height="40" fill="url(#black)"/><rect x="28" y="0" width="3" height="40" fill="url(#black)"/><text x="23.5" y="50" text-anchor="middle" font-family="monospace" font-size="10" fill="black">L</text></g><g></g><g><rect x="32" y="0" width="3" height="40" fill="url(#black)"/><rect x="36" y="0" width="1" height="40" fill="url(#black)"/><rect x="38" y="0" width="3" height="40" fill="url(#black)"/><rect x="42" y="0" width="1" height="40" fill="url(#black)"/><rect x="46" y="0" width="1" height="40" fill="url(#black)"/><text x="39.5" y="50" text-anchor="middle" font-family="monospace" font-size="10" fill="black">O</text></g><g></g><g><rect x="48" y="0" width="1" height="40" fill="url(#black)"/><rect x="50" y="0" width="1" height="40" fill="url(#black)"/><rect x="52" y="0" width="3" height="40" fill="url(#black)"/><rect x="56" y="0" width="3" height="40" fill="url(#black)"/><rect x="62" y="0" width="1" height="40" fill="url(#black)"/><text x="55.5" y="50" text-anchor="middle" font-family="monospace" font-size="10" fill="black">T</text></g><g></g><g><rect x="64" y="0" width="1" height="40" fill="url(#black)"/><rect x="66" y="0" width="3" height="40" fill="url(#black)"/><rect x="72" y="0" width="3" height="40" fill="url(#black)"/><rect x="76" y="0" width="1" height="40" fill="url(#black)"/><rect x="78" y="0" width="1" height="40" fill="url(#black)"/><text x="71.5" y="50" text-anchor="middle" font-family="monospace" font-size="10" fill="black">6</text></g><g></g><g><rect x="80" y="0" width="1" height="40" fill="url(#black)"/><rect x="82" y="0" width="3" height="40" fill="url(#black)"/><rect x="88" y="0" width="3" height="40" fill="url(#black)"/><rect x="92" y="0" width="1" height="40" fill="url(#black)"/><rect x="94" y="0" width="1" height="40" fill="url(#black)"/><text x="87.5" y="50" text-anchor="middle" font-family="monospace" font-size="10" fill="black">6</text></g><g></g><g><rect x="96" y="0" width="1" height="40" fill="url(#black)"/><rect x="98" y="0" width="3" height="40" fill="url(#black)"/><rect x="104" y="0" width="3" height="40" fill="url(#black)"/><rect x="108" y="0" width="1" height="40" fill="url(#black)"/><rect x="110" y="0" width="1" height="40" fill="url(#black)"/><text x="103.5" y="50" text-anchor="middle" font-family="monospace" font-size="10" fill="black">6</text></g><g></g><g><rect x="112" y="0" width="1" height="40" fill="url(#black)"/><rect x="116" y="0" width="1" height="40" fill="url(#black)"/><rect x="118" y="0" width="3" height="40" fill="url(#black)"/><rect x="122" y="0" width="3" height="40" fill="url(#black)"/><rect x="126" y="0" width="1" height="40" fill="url(#black)"/><text x="119.5" y="50" text-anchor="middle" font-family="monospace" font-size="10" fill="black">*</text></g><defs>
			<linearGradient id="black" x1="0" x2="0" y1="0" y2="1">
				<stop offset="0%" stop-color="#000"/>
				<stop offset="100%" stop-color="#000"/>
			</linearGradient>
			<linearGradient id="navyBlue" x1="0" x2="0" y1="0" y2="1">
				<stop offset="0%" stop-color="#00379c"/>
				<stop offset="100%" stop-color="#00379c"/>
			</linearGradient>
			<linearGradient id="midnightGreen" x1="0" x2="0" y1="0" y2="1">
				<stop offset="0%" stop-color="#008000"/>
				<stop offset="100%" stop-color="#008000"/>
			</linearGradient>
			<linearGradient id="holo" x1="0" x2="0" y1="0" y2="1">
				<stop offset="0%" stop-color="#ae00ff"/>
				<stop offset="100%" stop-color="#009dff"/>
			</linearGradient>
			<linearGradient id="gradient" x1="0" x2="0" y1="0" y2="1">
				<stop offset="0%" stop-color="#d85bc6"/>
				<stop offset="100%" stop-color="#5c4cff"/>
			</linearGradient>
			<linearGradient id="neon" x1="0" x2="0" y1="0" y2="1">
				<stop offset="0%" stop-color="#00c400"/>
				<stop offset="100%" stop-color="#00612a"/>
			</linearGradient>
		</defs></g></g></svg>